<svg width="20" height="16" viewBox="0 0 20 16" fill="none" xmlns="http://www.w3.org/2000/svg">
<path d="M9.98535 7.20313L16.6639 0.828127C17.1255 0.387501 17.872 0.387501 18.3287 0.828127L19.4385 1.8875C19.9001 2.32813 19.9001 3.04063 19.4385 3.47657L14.7095 8.00001L19.4434 12.5188C19.905 12.9594 19.905 13.6719 19.4434 14.1078L18.3336 15.1719C17.872 15.6125 17.1255 15.6125 16.6688 15.1719L9.99026 8.79688C9.52374 8.35626 9.52374 7.64376 9.98535 7.20313ZM0.556776 8.79688L7.23535 15.1719C7.69695 15.6125 8.44338 15.6125 8.90008 15.1719L10.0099 14.1125C10.4715 13.6719 10.4715 12.9594 10.0099 12.5234L5.28088 8.00001L10.0148 3.48125C10.4764 3.04063 10.4764 2.32813 10.0148 1.89219L8.90499 0.828127C8.44338 0.387501 7.69695 0.387501 7.24026 0.828127L0.561686 7.20313C0.0951684 7.64376 0.0951685 8.35626 0.556776 8.79688Z" fill="white"/>
</svg>
