<svg width="1210" height="383" viewBox="0 0 1210 383" fill="none" xmlns="http://www.w3.org/2000/svg">
<rect width="1210.02" height="381.852" transform="translate(0 0.147995)" fill="white"/>
<path d="M23.01 375.707H20.7249V382.045H19.7923V375.707H17.512V374.935H23.01V375.707ZM25.6272 382.142C24.9111 382.142 24.3284 381.908 23.8792 381.439C23.43 380.967 23.2053 380.337 23.2053 379.55V379.384C23.2053 378.859 23.3046 378.392 23.5032 377.982C23.705 377.569 23.985 377.247 24.343 377.015C24.7044 376.781 25.095 376.664 25.5149 376.664C26.2018 376.664 26.7356 376.89 27.1165 377.343C27.4973 377.795 27.6878 378.443 27.6878 379.286V379.662H24.1087C24.1217 380.183 24.2731 380.604 24.5628 380.927C24.8557 381.246 25.2268 381.405 25.676 381.405C25.9951 381.405 26.2652 381.34 26.4866 381.21C26.7079 381.08 26.9016 380.907 27.0676 380.692L27.6194 381.122C27.1767 381.802 26.5126 382.142 25.6272 382.142ZM25.5149 377.406C25.1503 377.406 24.8443 377.539 24.5969 377.806C24.3495 378.07 24.1966 378.441 24.138 378.92H26.7844V378.851C26.7584 378.392 26.6347 378.038 26.4134 377.787C26.192 377.533 25.8925 377.406 25.5149 377.406ZM30.51 378.69L31.6819 376.761H32.7366L31.0081 379.374L32.7903 382.045H31.7454L30.5247 380.067L29.304 382.045H28.2542L30.0364 379.374L28.3079 376.761H29.3528L30.51 378.69ZM34.9241 375.482V376.761H35.9104V377.46H34.9241V380.736C34.9241 380.948 34.968 381.107 35.0559 381.215C35.1438 381.319 35.2936 381.371 35.5051 381.371C35.6093 381.371 35.7525 381.351 35.9348 381.312V382.045C35.6972 382.11 35.4661 382.142 35.2415 382.142C34.8378 382.142 34.5335 382.02 34.3284 381.776C34.1233 381.532 34.0208 381.185 34.0208 380.736V377.46H33.0589V376.761H34.0208V375.482H34.9241Z" fill="#A3A3A3"/>
<path d="M82.5198 375.707H80.2346V382.045H79.302V375.707H77.0217V374.935H82.5198V375.707ZM85.137 382.142C84.4208 382.142 83.8382 381.908 83.3889 381.439C82.9397 380.967 82.7151 380.337 82.7151 379.55V379.384C82.7151 378.859 82.8144 378.392 83.013 377.982C83.2148 377.569 83.4947 377.247 83.8528 377.015C84.2141 376.781 84.6048 376.664 85.0247 376.664C85.7115 376.664 86.2454 376.89 86.6262 377.343C87.0071 377.795 87.1975 378.443 87.1975 379.286V379.662H83.6184C83.6315 380.183 83.7828 380.604 84.0725 380.927C84.3655 381.246 84.7366 381.405 85.1858 381.405C85.5048 381.405 85.775 381.34 85.9964 381.21C86.2177 381.08 86.4114 380.907 86.5774 380.692L87.1292 381.122C86.6865 381.802 86.0224 382.142 85.137 382.142ZM85.0247 377.406C84.6601 377.406 84.3541 377.539 84.1067 377.806C83.8593 378.07 83.7063 378.441 83.6477 378.92H86.2942V378.851C86.2682 378.392 86.1445 378.038 85.9231 377.787C85.7018 377.533 85.4023 377.406 85.0247 377.406ZM90.0198 378.69L91.1917 376.761H92.2464L90.5178 379.374L92.3001 382.045H91.2551L90.0344 380.067L88.8137 382.045H87.7639L89.5462 379.374L87.8176 376.761H88.8626L90.0198 378.69ZM94.4339 375.482V376.761H95.4202V377.46H94.4339V380.736C94.4339 380.948 94.4778 381.107 94.5657 381.215C94.6536 381.319 94.8033 381.371 95.0149 381.371C95.1191 381.371 95.2623 381.351 95.4446 381.312V382.045C95.207 382.11 94.9759 382.142 94.7512 382.142C94.3476 382.142 94.0432 382.02 93.8382 381.776C93.6331 381.532 93.5305 381.185 93.5305 380.736V377.46H92.5686V376.761H93.5305V375.482H94.4339Z" fill="#A3A3A3"/>
<path d="M143.02 375.707H140.735V382.045H139.802V375.707H137.522V374.935H143.02V375.707ZM145.637 382.142C144.921 382.142 144.338 381.908 143.889 381.439C143.44 380.967 143.215 380.337 143.215 379.55V379.384C143.215 378.859 143.314 378.392 143.513 377.982C143.715 377.569 143.995 377.247 144.353 377.015C144.714 376.781 145.105 376.664 145.525 376.664C146.212 376.664 146.745 376.89 147.126 377.343C147.507 377.795 147.698 378.443 147.698 379.286V379.662H144.118C144.131 380.183 144.283 380.604 144.573 380.927C144.865 381.246 145.237 381.405 145.686 381.405C146.005 381.405 146.275 381.34 146.496 381.21C146.718 381.08 146.911 380.907 147.077 380.692L147.629 381.122C147.186 381.802 146.522 382.142 145.637 382.142ZM145.525 377.406C145.16 377.406 144.854 377.539 144.607 377.806C144.359 378.07 144.206 378.441 144.148 378.92H146.794V378.851C146.768 378.392 146.644 378.038 146.423 377.787C146.202 377.533 145.902 377.406 145.525 377.406ZM150.52 378.69L151.692 376.761H152.746L151.018 379.374L152.8 382.045H151.755L150.534 380.067L149.314 382.045H148.264L150.046 379.374L148.318 376.761H149.363L150.52 378.69ZM154.934 375.482V376.761H155.92V377.46H154.934V380.736C154.934 380.948 154.978 381.107 155.066 381.215C155.154 381.319 155.303 381.371 155.515 381.371C155.619 381.371 155.762 381.351 155.945 381.312V382.045C155.707 382.11 155.476 382.142 155.251 382.142C154.848 382.142 154.543 382.02 154.338 381.776C154.133 381.532 154.031 381.185 154.031 380.736V377.46H153.069V376.761H154.031V375.482H154.934Z" fill="#A3A3A3"/>
<path d="M202.53 375.707H200.244V382.045H199.312V375.707H197.032V374.935H202.53V375.707ZM205.147 382.142C204.431 382.142 203.848 381.908 203.399 381.439C202.949 380.967 202.725 380.337 202.725 379.55V379.384C202.725 378.859 202.824 378.392 203.023 377.982C203.225 377.569 203.504 377.247 203.863 377.015C204.224 376.781 204.615 376.664 205.034 376.664C205.721 376.664 206.255 376.89 206.636 377.343C207.017 377.795 207.207 378.443 207.207 379.286V379.662H203.628C203.641 380.183 203.793 380.604 204.082 380.927C204.375 381.246 204.746 381.405 205.196 381.405C205.515 381.405 205.785 381.34 206.006 381.21C206.227 381.08 206.421 380.907 206.587 380.692L207.139 381.122C206.696 381.802 206.032 382.142 205.147 382.142ZM205.034 377.406C204.67 377.406 204.364 377.539 204.116 377.806C203.869 378.07 203.716 378.441 203.657 378.92H206.304V378.851C206.278 378.392 206.154 378.038 205.933 377.787C205.712 377.533 205.412 377.406 205.034 377.406ZM210.03 378.69L211.201 376.761H212.256L210.528 379.374L212.31 382.045H211.265L210.044 380.067L208.824 382.045H207.774L209.556 379.374L207.827 376.761H208.872L210.03 378.69ZM214.444 375.482V376.761H215.43V377.46H214.444V380.736C214.444 380.948 214.488 381.107 214.575 381.215C214.663 381.319 214.813 381.371 215.025 381.371C215.129 381.371 215.272 381.351 215.454 381.312V382.045C215.217 382.11 214.986 382.142 214.761 382.142C214.357 382.142 214.053 382.02 213.848 381.776C213.643 381.532 213.54 381.185 213.54 380.736V377.46H212.578V376.761H213.54V375.482H214.444Z" fill="#A3A3A3"/>
<path d="M263.032 375.707H260.746V382.045H259.814V375.707H257.533V374.935H263.032V375.707ZM265.649 382.142C264.933 382.142 264.35 381.908 263.901 381.439C263.451 380.967 263.227 380.337 263.227 379.55V379.384C263.227 378.859 263.326 378.392 263.525 377.982C263.727 377.569 264.006 377.247 264.365 377.015C264.726 376.781 265.116 376.664 265.536 376.664C266.223 376.664 266.757 376.89 267.138 377.343C267.519 377.795 267.709 378.443 267.709 379.286V379.662H264.13C264.143 380.183 264.295 380.604 264.584 380.927C264.877 381.246 265.248 381.405 265.698 381.405C266.017 381.405 266.287 381.34 266.508 381.21C266.729 381.08 266.923 380.907 267.089 380.692L267.641 381.122C267.198 381.802 266.534 382.142 265.649 382.142ZM265.536 377.406C265.172 377.406 264.866 377.539 264.618 377.806C264.371 378.07 264.218 378.441 264.159 378.92H266.806V378.851C266.78 378.392 266.656 378.038 266.435 377.787C266.213 377.533 265.914 377.406 265.536 377.406ZM270.532 378.69L271.703 376.761H272.758L271.03 379.374L272.812 382.045H271.767L270.546 380.067L269.325 382.045H268.276L270.058 379.374L268.329 376.761H269.374L270.532 378.69ZM274.946 375.482V376.761H275.932V377.46H274.946V380.736C274.946 380.948 274.99 381.107 275.077 381.215C275.165 381.319 275.315 381.371 275.527 381.371C275.631 381.371 275.774 381.351 275.956 381.312V382.045C275.719 382.11 275.488 382.142 275.263 382.142C274.859 382.142 274.555 382.02 274.35 381.776C274.145 381.532 274.042 381.185 274.042 380.736V377.46H273.08V376.761H274.042V375.482H274.946Z" fill="#A3A3A3"/>
<path d="M323.532 375.707H321.246V382.045H320.314V375.707H318.033V374.935H323.532V375.707ZM326.149 382.142C325.433 382.142 324.85 381.908 324.401 381.439C323.951 380.967 323.727 380.337 323.727 379.55V379.384C323.727 378.859 323.826 378.392 324.025 377.982C324.227 377.569 324.506 377.247 324.865 377.015C325.226 376.781 325.616 376.664 326.036 376.664C326.723 376.664 327.257 376.89 327.638 377.343C328.019 377.795 328.209 378.443 328.209 379.286V379.662H324.63C324.643 380.183 324.795 380.604 325.084 380.927C325.377 381.246 325.748 381.405 326.198 381.405C326.517 381.405 326.787 381.34 327.008 381.21C327.229 381.08 327.423 380.907 327.589 380.692L328.141 381.122C327.698 381.802 327.034 382.142 326.149 382.142ZM326.036 377.406C325.672 377.406 325.366 377.539 325.118 377.806C324.871 378.07 324.718 378.441 324.659 378.92H327.306V378.851C327.28 378.392 327.156 378.038 326.935 377.787C326.713 377.533 326.414 377.406 326.036 377.406ZM331.032 378.69L332.203 376.761H333.258L331.53 379.374L333.312 382.045H332.267L331.046 380.067L329.825 382.045H328.776L330.558 379.374L328.829 376.761H329.874L331.032 378.69ZM335.446 375.482V376.761H336.432V377.46H335.446V380.736C335.446 380.948 335.49 381.107 335.577 381.215C335.665 381.319 335.815 381.371 336.027 381.371C336.131 381.371 336.274 381.351 336.456 381.312V382.045C336.219 382.11 335.988 382.142 335.763 382.142C335.359 382.142 335.055 382.02 334.85 381.776C334.645 381.532 334.542 381.185 334.542 380.736V377.46H333.58V376.761H334.542V375.482H335.446Z" fill="#A3A3A3"/>
<path d="M383.041 375.707H380.756V382.045H379.824V375.707H377.543V374.935H383.041V375.707ZM385.658 382.142C384.942 382.142 384.36 381.908 383.91 381.439C383.461 380.967 383.237 380.337 383.237 379.55V379.384C383.237 378.859 383.336 378.392 383.534 377.982C383.736 377.569 384.016 377.247 384.374 377.015C384.736 376.781 385.126 376.664 385.546 376.664C386.233 376.664 386.767 376.89 387.148 377.343C387.529 377.795 387.719 378.443 387.719 379.286V379.662H384.14C384.153 380.183 384.304 380.604 384.594 380.927C384.887 381.246 385.258 381.405 385.707 381.405C386.026 381.405 386.296 381.34 386.518 381.21C386.739 381.08 386.933 380.907 387.099 380.692L387.651 381.122C387.208 381.802 386.544 382.142 385.658 382.142ZM385.546 377.406C385.182 377.406 384.876 377.539 384.628 377.806C384.381 378.07 384.228 378.441 384.169 378.92H386.816V378.851C386.79 378.392 386.666 378.038 386.445 377.787C386.223 377.533 385.924 377.406 385.546 377.406ZM390.541 378.69L391.713 376.761H392.768L391.039 379.374L392.822 382.045H391.777L390.556 380.067L389.335 382.045H388.285L390.068 379.374L388.339 376.761H389.384L390.541 378.69ZM394.955 375.482V376.761H395.942V377.46H394.955V380.736C394.955 380.948 394.999 381.107 395.087 381.215C395.175 381.319 395.325 381.371 395.536 381.371C395.641 381.371 395.784 381.351 395.966 381.312V382.045C395.728 382.11 395.497 382.142 395.273 382.142C394.869 382.142 394.565 382.02 394.36 381.776C394.155 381.532 394.052 381.185 394.052 380.736V377.46H393.09V376.761H394.052V375.482H394.955Z" fill="#A3A3A3"/>
<path d="M443.543 375.707H441.258V382.045H440.325V375.707H438.045V374.935H443.543V375.707ZM446.16 382.142C445.444 382.142 444.862 381.908 444.412 381.439C443.963 380.967 443.739 380.337 443.739 379.55V379.384C443.739 378.859 443.838 378.392 444.036 377.982C444.238 377.569 444.518 377.247 444.876 377.015C445.238 376.781 445.628 376.664 446.048 376.664C446.735 376.664 447.269 376.89 447.65 377.343C448.031 377.795 448.221 378.443 448.221 379.286V379.662H444.642C444.655 380.183 444.806 380.604 445.096 380.927C445.389 381.246 445.76 381.405 446.209 381.405C446.528 381.405 446.798 381.34 447.02 381.21C447.241 381.08 447.435 380.907 447.601 380.692L448.153 381.122C447.71 381.802 447.046 382.142 446.16 382.142ZM446.048 377.406C445.684 377.406 445.378 377.539 445.13 377.806C444.883 378.07 444.73 378.441 444.671 378.92H447.318V378.851C447.292 378.392 447.168 378.038 446.947 377.787C446.725 377.533 446.426 377.406 446.048 377.406ZM451.043 378.69L452.215 376.761H453.27L451.541 379.374L453.324 382.045H452.279L451.058 380.067L449.837 382.045H448.787L450.57 379.374L448.841 376.761H449.886L451.043 378.69ZM455.457 375.482V376.761H456.444V377.46H455.457V380.736C455.457 380.948 455.501 381.107 455.589 381.215C455.677 381.319 455.827 381.371 456.038 381.371C456.143 381.371 456.286 381.351 456.468 381.312V382.045C456.23 382.11 455.999 382.142 455.775 382.142C455.371 382.142 455.067 382.02 454.862 381.776C454.657 381.532 454.554 381.185 454.554 380.736V377.46H453.592V376.761H454.554V375.482H455.457Z" fill="#A3A3A3"/>
<path d="M504.043 375.707H501.758V382.045H500.825V375.707H498.545V374.935H504.043V375.707ZM506.66 382.142C505.944 382.142 505.362 381.908 504.912 381.439C504.463 380.967 504.239 380.337 504.239 379.55V379.384C504.239 378.859 504.338 378.392 504.536 377.982C504.738 377.569 505.018 377.247 505.376 377.015C505.738 376.781 506.128 376.664 506.548 376.664C507.235 376.664 507.769 376.89 508.15 377.343C508.531 377.795 508.721 378.443 508.721 379.286V379.662H505.142C505.155 380.183 505.306 380.604 505.596 380.927C505.889 381.246 506.26 381.405 506.709 381.405C507.028 381.405 507.298 381.34 507.52 381.21C507.741 381.08 507.935 380.907 508.101 380.692L508.653 381.122C508.21 381.802 507.546 382.142 506.66 382.142ZM506.548 377.406C506.184 377.406 505.878 377.539 505.63 377.806C505.383 378.07 505.23 378.441 505.171 378.92H507.818V378.851C507.792 378.392 507.668 378.038 507.447 377.787C507.225 377.533 506.926 377.406 506.548 377.406ZM511.543 378.69L512.715 376.761H513.77L512.041 379.374L513.824 382.045H512.779L511.558 380.067L510.337 382.045H509.287L511.07 379.374L509.341 376.761H510.386L511.543 378.69ZM515.957 375.482V376.761H516.944V377.46H515.957V380.736C515.957 380.948 516.001 381.107 516.089 381.215C516.177 381.319 516.327 381.371 516.538 381.371C516.643 381.371 516.786 381.351 516.968 381.312V382.045C516.73 382.11 516.499 382.142 516.275 382.142C515.871 382.142 515.567 382.02 515.362 381.776C515.157 381.532 515.054 381.185 515.054 380.736V377.46H514.092V376.761H515.054V375.482H515.957Z" fill="#A3A3A3"/>
<path d="M563.553 375.707H561.268V382.045H560.335V375.707H558.055V374.935H563.553V375.707ZM566.17 382.142C565.454 382.142 564.871 381.908 564.422 381.439C563.973 380.967 563.748 380.337 563.748 379.55V379.384C563.748 378.859 563.848 378.392 564.046 377.982C564.248 377.569 564.528 377.247 564.886 377.015C565.247 376.781 565.638 376.664 566.058 376.664C566.745 376.664 567.279 376.89 567.659 377.343C568.04 377.795 568.231 378.443 568.231 379.286V379.662H564.652C564.665 380.183 564.816 380.604 565.106 380.927C565.399 381.246 565.77 381.405 566.219 381.405C566.538 381.405 566.808 381.34 567.03 381.21C567.251 381.08 567.445 380.907 567.611 380.692L568.162 381.122C567.72 381.802 567.056 382.142 566.17 382.142ZM566.058 377.406C565.693 377.406 565.387 377.539 565.14 377.806C564.893 378.07 564.74 378.441 564.681 378.92H567.327V378.851C567.301 378.392 567.178 378.038 566.956 377.787C566.735 377.533 566.435 377.406 566.058 377.406ZM571.053 378.69L572.225 376.761H573.28L571.551 379.374L573.333 382.045H572.288L571.068 380.067L569.847 382.045H568.797L570.579 379.374L568.851 376.761H569.896L571.053 378.69ZM575.467 375.482V376.761H576.453V377.46H575.467V380.736C575.467 380.948 575.511 381.107 575.599 381.215C575.687 381.319 575.837 381.371 576.048 381.371C576.152 381.371 576.296 381.351 576.478 381.312V382.045C576.24 382.11 576.009 382.142 575.784 382.142C575.381 382.142 575.076 382.02 574.871 381.776C574.666 381.532 574.564 381.185 574.564 380.736V377.46H573.602V376.761H574.564V375.482H575.467Z" fill="#A3A3A3"/>
<path d="M624.055 375.707H621.77V382.045H620.837V375.707H618.557V374.935H624.055V375.707ZM626.672 382.142C625.956 382.142 625.373 381.908 624.924 381.439C624.475 380.967 624.25 380.337 624.25 379.55V379.384C624.25 378.859 624.35 378.392 624.548 377.982C624.75 377.569 625.03 377.247 625.388 377.015C625.749 376.781 626.14 376.664 626.56 376.664C627.247 376.664 627.781 376.89 628.161 377.343C628.542 377.795 628.733 378.443 628.733 379.286V379.662H625.154C625.167 380.183 625.318 380.604 625.608 380.927C625.901 381.246 626.272 381.405 626.721 381.405C627.04 381.405 627.31 381.34 627.532 381.21C627.753 381.08 627.947 380.907 628.113 380.692L628.664 381.122C628.222 381.802 627.558 382.142 626.672 382.142ZM626.56 377.406C626.195 377.406 625.889 377.539 625.642 377.806C625.394 378.07 625.241 378.441 625.183 378.92H627.829V378.851C627.803 378.392 627.68 378.038 627.458 377.787C627.237 377.533 626.937 377.406 626.56 377.406ZM631.555 378.69L632.727 376.761H633.782L632.053 379.374L633.835 382.045H632.79L631.57 380.067L630.349 382.045H629.299L631.081 379.374L629.353 376.761H630.398L631.555 378.69ZM635.969 375.482V376.761H636.955V377.46H635.969V380.736C635.969 380.948 636.013 381.107 636.101 381.215C636.189 381.319 636.338 381.371 636.55 381.371C636.654 381.371 636.797 381.351 636.98 381.312V382.045C636.742 382.11 636.511 382.142 636.286 382.142C635.883 382.142 635.578 382.02 635.373 381.776C635.168 381.532 635.066 381.185 635.066 380.736V377.46H634.104V376.761H635.066V375.482H635.969Z" fill="#A3A3A3"/>
<path d="M684.555 375.707H682.27V382.045H681.337V375.707H679.057V374.935H684.555V375.707ZM687.172 382.142C686.456 382.142 685.873 381.908 685.424 381.439C684.975 380.967 684.75 380.337 684.75 379.55V379.384C684.75 378.859 684.85 378.392 685.048 377.982C685.25 377.569 685.53 377.247 685.888 377.015C686.249 376.781 686.64 376.664 687.06 376.664C687.747 376.664 688.281 376.89 688.661 377.343C689.042 377.795 689.233 378.443 689.233 379.286V379.662H685.654C685.667 380.183 685.818 380.604 686.108 380.927C686.401 381.246 686.772 381.405 687.221 381.405C687.54 381.405 687.81 381.34 688.032 381.21C688.253 381.08 688.447 380.907 688.613 380.692L689.164 381.122C688.722 381.802 688.058 382.142 687.172 382.142ZM687.06 377.406C686.695 377.406 686.389 377.539 686.142 377.806C685.894 378.07 685.741 378.441 685.683 378.92H688.329V378.851C688.303 378.392 688.18 378.038 687.958 377.787C687.737 377.533 687.437 377.406 687.06 377.406ZM692.055 378.69L693.227 376.761H694.282L692.553 379.374L694.335 382.045H693.29L692.07 380.067L690.849 382.045H689.799L691.581 379.374L689.853 376.761H690.898L692.055 378.69ZM696.469 375.482V376.761H697.455V377.46H696.469V380.736C696.469 380.948 696.513 381.107 696.601 381.215C696.689 381.319 696.838 381.371 697.05 381.371C697.154 381.371 697.297 381.351 697.48 381.312V382.045C697.242 382.11 697.011 382.142 696.786 382.142C696.383 382.142 696.078 382.02 695.873 381.776C695.668 381.532 695.566 381.185 695.566 380.736V377.46H694.604V376.761H695.566V375.482H696.469Z" fill="#A3A3A3"/>
<path d="M744.065 375.707H741.78V382.045H740.847V375.707H738.567V374.935H744.065V375.707ZM746.682 382.142C745.966 382.142 745.383 381.908 744.934 381.439C744.485 380.967 744.26 380.337 744.26 379.55V379.384C744.26 378.859 744.359 378.392 744.558 377.982C744.76 377.569 745.04 377.247 745.398 377.015C745.759 376.781 746.15 376.664 746.57 376.664C747.256 376.664 747.79 376.89 748.171 377.343C748.552 377.795 748.742 378.443 748.742 379.286V379.662H745.163C745.176 380.183 745.328 380.604 745.617 380.927C745.91 381.246 746.282 381.405 746.731 381.405C747.05 381.405 747.32 381.34 747.541 381.21C747.763 381.08 747.956 380.907 748.122 380.692L748.674 381.122C748.231 381.802 747.567 382.142 746.682 382.142ZM746.57 377.406C746.205 377.406 745.899 377.539 745.652 377.806C745.404 378.07 745.251 378.441 745.193 378.92H747.839V378.851C747.813 378.392 747.689 378.038 747.468 377.787C747.247 377.533 746.947 377.406 746.57 377.406ZM751.565 378.69L752.737 376.761H753.791L752.063 379.374L753.845 382.045H752.8L751.579 380.067L750.359 382.045H749.309L751.091 379.374L749.363 376.761H750.407L751.565 378.69ZM755.979 375.482V376.761H756.965V377.46H755.979V380.736C755.979 380.948 756.023 381.107 756.111 381.215C756.199 381.319 756.348 381.371 756.56 381.371C756.664 381.371 756.807 381.351 756.99 381.312V382.045C756.752 382.11 756.521 382.142 756.296 382.142C755.893 382.142 755.588 382.02 755.383 381.776C755.178 381.532 755.075 381.185 755.075 380.736V377.46H754.114V376.761H755.075V375.482H755.979Z" fill="#A3A3A3"/>
<path d="M804.567 375.707H802.282V382.045H801.349V375.707H799.069V374.935H804.567V375.707ZM807.184 382.142C806.468 382.142 805.885 381.908 805.436 381.439C804.987 380.967 804.762 380.337 804.762 379.55V379.384C804.762 378.859 804.861 378.392 805.06 377.982C805.262 377.569 805.542 377.247 805.9 377.015C806.261 376.781 806.652 376.664 807.072 376.664C807.758 376.664 808.292 376.89 808.673 377.343C809.054 377.795 809.244 378.443 809.244 379.286V379.662H805.665C805.678 380.183 805.83 380.604 806.119 380.927C806.412 381.246 806.783 381.405 807.233 381.405C807.552 381.405 807.822 381.34 808.043 381.21C808.265 381.08 808.458 380.907 808.624 380.692L809.176 381.122C808.733 381.802 808.069 382.142 807.184 382.142ZM807.072 377.406C806.707 377.406 806.401 377.539 806.154 377.806C805.906 378.07 805.753 378.441 805.695 378.92H808.341V378.851C808.315 378.392 808.191 378.038 807.97 377.787C807.749 377.533 807.449 377.406 807.072 377.406ZM812.067 378.69L813.239 376.761H814.293L812.565 379.374L814.347 382.045H813.302L812.081 380.067L810.861 382.045H809.811L811.593 379.374L809.865 376.761H810.909L812.067 378.69ZM816.481 375.482V376.761H817.467V377.46H816.481V380.736C816.481 380.948 816.525 381.107 816.613 381.215C816.7 381.319 816.85 381.371 817.062 381.371C817.166 381.371 817.309 381.351 817.491 381.312V382.045C817.254 382.11 817.023 382.142 816.798 382.142C816.394 382.142 816.09 382.02 815.885 381.776C815.68 381.532 815.577 381.185 815.577 380.736V377.46H814.615V376.761H815.577V375.482H816.481Z" fill="#A3A3A3"/>
<path d="M865.069 375.707H862.783V382.045H861.851V375.707H859.571V374.935H865.069V375.707ZM867.686 382.142C866.97 382.142 866.387 381.908 865.938 381.439C865.489 380.967 865.264 380.337 865.264 379.55V379.384C865.264 378.859 865.363 378.392 865.562 377.982C865.764 377.569 866.044 377.247 866.402 377.015C866.763 376.781 867.154 376.664 867.574 376.664C868.26 376.664 868.794 376.89 869.175 377.343C869.556 377.795 869.746 378.443 869.746 379.286V379.662H866.167C866.18 380.183 866.332 380.604 866.621 380.927C866.914 381.246 867.285 381.405 867.735 381.405C868.054 381.405 868.324 381.34 868.545 381.21C868.767 381.08 868.96 380.907 869.126 380.692L869.678 381.122C869.235 381.802 868.571 382.142 867.686 382.142ZM867.574 377.406C867.209 377.406 866.903 377.539 866.656 377.806C866.408 378.07 866.255 378.441 866.197 378.92H868.843V378.851C868.817 378.392 868.693 378.038 868.472 377.787C868.251 377.533 867.951 377.406 867.574 377.406ZM872.569 378.69L873.74 376.761H874.795L873.067 379.374L874.849 382.045H873.804L872.583 380.067L871.363 382.045H870.313L872.095 379.374L870.366 376.761H871.411L872.569 378.69ZM876.983 375.482V376.761H877.969V377.46H876.983V380.736C876.983 380.948 877.027 381.107 877.115 381.215C877.202 381.319 877.352 381.371 877.564 381.371C877.668 381.371 877.811 381.351 877.993 381.312V382.045C877.756 382.11 877.525 382.142 877.3 382.142C876.896 382.142 876.592 382.02 876.387 381.776C876.182 381.532 876.079 381.185 876.079 380.736V377.46H875.117V376.761H876.079V375.482H876.983Z" fill="#A3A3A3"/>
<path d="M924.576 375.707H922.291V382.045H921.359V375.707H919.078V374.935H924.576V375.707ZM927.194 382.142C926.477 382.142 925.895 381.908 925.446 381.439C924.996 380.967 924.772 380.337 924.772 379.55V379.384C924.772 378.859 924.871 378.392 925.07 377.982C925.271 377.569 925.551 377.247 925.909 377.015C926.271 376.781 926.661 376.664 927.081 376.664C927.768 376.664 928.302 376.89 928.683 377.343C929.064 377.795 929.254 378.443 929.254 379.286V379.662H925.675C925.688 380.183 925.839 380.604 926.129 380.927C926.422 381.246 926.793 381.405 927.242 381.405C927.561 381.405 927.832 381.34 928.053 381.21C928.274 381.08 928.468 380.907 928.634 380.692L929.186 381.122C928.743 381.802 928.079 382.142 927.194 382.142ZM927.081 377.406C926.717 377.406 926.411 377.539 926.163 377.806C925.916 378.07 925.763 378.441 925.704 378.92H928.351V378.851C928.325 378.392 928.201 378.038 927.98 377.787C927.758 377.533 927.459 377.406 927.081 377.406ZM932.076 378.69L933.248 376.761H934.303L932.574 379.374L934.357 382.045H933.312L932.091 380.067L930.87 382.045H929.821L931.603 379.374L929.874 376.761H930.919L932.076 378.69ZM936.49 375.482V376.761H937.477V377.46H936.49V380.736C936.49 380.948 936.534 381.107 936.622 381.215C936.71 381.319 936.86 381.371 937.072 381.371C937.176 381.371 937.319 381.351 937.501 381.312V382.045C937.264 382.11 937.032 382.142 936.808 382.142C936.404 382.142 936.1 382.02 935.895 381.776C935.69 381.532 935.587 381.185 935.587 380.736V377.46H934.625V376.761H935.587V375.482H936.49Z" fill="#A3A3A3"/>
<path d="M985.078 375.707H982.793V382.045H981.861V375.707H979.58V374.935H985.078V375.707ZM987.696 382.142C986.979 382.142 986.397 381.908 985.948 381.439C985.498 380.967 985.274 380.337 985.274 379.55V379.384C985.274 378.859 985.373 378.392 985.572 377.982C985.773 377.569 986.053 377.247 986.411 377.015C986.773 376.781 987.163 376.664 987.583 376.664C988.27 376.664 988.804 376.89 989.185 377.343C989.566 377.795 989.756 378.443 989.756 379.286V379.662H986.177C986.19 380.183 986.341 380.604 986.631 380.927C986.924 381.246 987.295 381.405 987.744 381.405C988.063 381.405 988.334 381.34 988.555 381.21C988.776 381.08 988.97 380.907 989.136 380.692L989.688 381.122C989.245 381.802 988.581 382.142 987.696 382.142ZM987.583 377.406C987.219 377.406 986.913 377.539 986.665 377.806C986.418 378.07 986.265 378.441 986.206 378.92H988.853V378.851C988.827 378.392 988.703 378.038 988.482 377.787C988.26 377.533 987.961 377.406 987.583 377.406ZM992.578 378.69L993.75 376.761H994.805L993.076 379.374L994.859 382.045H993.814L992.593 380.067L991.372 382.045H990.323L992.105 379.374L990.376 376.761H991.421L992.578 378.69ZM996.992 375.482V376.761H997.979V377.46H996.992V380.736C996.992 380.948 997.036 381.107 997.124 381.215C997.212 381.319 997.362 381.371 997.574 381.371C997.678 381.371 997.821 381.351 998.003 381.312V382.045C997.766 382.11 997.534 382.142 997.31 382.142C996.906 382.142 996.602 382.02 996.397 381.776C996.192 381.532 996.089 381.185 996.089 380.736V377.46H995.127V376.761H996.089V375.482H996.992Z" fill="#A3A3A3"/>
<path d="M1045.58 375.707H1043.3V382.045H1042.36V375.707H1040.08V374.935H1045.58V375.707ZM1048.2 382.142C1047.48 382.142 1046.9 381.908 1046.45 381.439C1046 380.967 1045.78 380.337 1045.78 379.55V379.384C1045.78 378.859 1045.87 378.392 1046.07 377.982C1046.28 377.569 1046.56 377.247 1046.91 377.015C1047.27 376.781 1047.67 376.664 1048.09 376.664C1048.77 376.664 1049.31 376.89 1049.69 377.343C1050.07 377.795 1050.26 378.443 1050.26 379.286V379.662H1046.68C1046.69 380.183 1046.84 380.604 1047.13 380.927C1047.43 381.246 1047.8 381.405 1048.25 381.405C1048.57 381.405 1048.84 381.34 1049.06 381.21C1049.28 381.08 1049.47 380.907 1049.64 380.692L1050.19 381.122C1049.75 381.802 1049.08 382.142 1048.2 382.142ZM1048.09 377.406C1047.72 377.406 1047.41 377.539 1047.17 377.806C1046.92 378.07 1046.77 378.441 1046.71 378.92H1049.35V378.851C1049.33 378.392 1049.21 378.038 1048.98 377.787C1048.76 377.533 1048.46 377.406 1048.09 377.406ZM1053.08 378.69L1054.25 376.761H1055.31L1053.58 379.374L1055.36 382.045H1054.32L1053.09 380.067L1051.87 382.045H1050.82L1052.61 379.374L1050.88 376.761H1051.92L1053.08 378.69ZM1057.49 375.482V376.761H1058.48V377.46H1057.49V380.736C1057.49 380.948 1057.54 381.107 1057.63 381.215C1057.71 381.319 1057.86 381.371 1058.08 381.371C1058.18 381.371 1058.32 381.351 1058.51 381.312V382.045C1058.27 382.11 1058.04 382.142 1057.81 382.142C1057.41 382.142 1057.1 382.02 1056.9 381.776C1056.69 381.532 1056.59 381.185 1056.59 380.736V377.46H1055.63V376.761H1056.59V375.482H1057.49Z" fill="#A3A3A3"/>
<path d="M1105.09 375.707H1102.8V382.045H1101.87V375.707H1099.59V374.935H1105.09V375.707ZM1107.71 382.142C1106.99 382.142 1106.41 381.908 1105.96 381.439C1105.51 380.967 1105.28 380.337 1105.28 379.55V379.384C1105.28 378.859 1105.38 378.392 1105.58 377.982C1105.78 377.569 1106.06 377.247 1106.42 377.015C1106.78 376.781 1107.17 376.664 1107.59 376.664C1108.28 376.664 1108.81 376.89 1109.19 377.343C1109.58 377.795 1109.77 378.443 1109.77 379.286V379.662H1106.19C1106.2 380.183 1106.35 380.604 1106.64 380.927C1106.93 381.246 1107.3 381.405 1107.75 381.405C1108.07 381.405 1108.34 381.34 1108.56 381.21C1108.79 381.08 1108.98 380.907 1109.15 380.692L1109.7 381.122C1109.25 381.802 1108.59 382.142 1107.71 382.142ZM1107.59 377.406C1107.23 377.406 1106.92 377.539 1106.68 377.806C1106.43 378.07 1106.27 378.441 1106.22 378.92H1108.86V378.851C1108.84 378.392 1108.71 378.038 1108.49 377.787C1108.27 377.533 1107.97 377.406 1107.59 377.406ZM1112.59 378.69L1113.76 376.761H1114.81L1113.09 379.374L1114.87 382.045H1113.82L1112.6 380.067L1111.38 382.045H1110.33L1112.11 379.374L1110.39 376.761H1111.43L1112.59 378.69ZM1117 375.482V376.761H1117.99V377.46H1117V380.736C1117 380.948 1117.05 381.107 1117.13 381.215C1117.22 381.319 1117.37 381.371 1117.58 381.371C1117.69 381.371 1117.83 381.351 1118.01 381.312V382.045C1117.78 382.11 1117.54 382.142 1117.32 382.142C1116.92 382.142 1116.61 382.02 1116.41 381.776C1116.2 381.532 1116.1 381.185 1116.1 380.736V377.46H1115.14V376.761H1116.1V375.482H1117Z" fill="#A3A3A3"/>
<path d="M1165.59 375.707H1163.3V382.045H1162.37V375.707H1160.09V374.935H1165.59V375.707ZM1168.21 382.142C1167.49 382.142 1166.91 381.908 1166.46 381.439C1166.01 380.967 1165.79 380.337 1165.79 379.55V379.384C1165.79 378.859 1165.88 378.392 1166.08 377.982C1166.29 377.569 1166.57 377.247 1166.92 377.015C1167.28 376.781 1167.68 376.664 1168.09 376.664C1168.78 376.664 1169.32 376.89 1169.7 377.343C1170.08 377.795 1170.27 378.443 1170.27 379.286V379.662H1166.69C1166.7 380.183 1166.85 380.604 1167.14 380.927C1167.44 381.246 1167.81 381.405 1168.26 381.405C1168.58 381.405 1168.85 381.34 1169.07 381.21C1169.29 381.08 1169.48 380.907 1169.65 380.692L1170.2 381.122C1169.76 381.802 1169.09 382.142 1168.21 382.142ZM1168.09 377.406C1167.73 377.406 1167.42 377.539 1167.18 377.806C1166.93 378.07 1166.78 378.441 1166.72 378.92H1169.36V378.851C1169.34 378.392 1169.21 378.038 1168.99 377.787C1168.77 377.533 1168.47 377.406 1168.09 377.406ZM1173.09 378.69L1174.26 376.761H1175.32L1173.59 379.374L1175.37 382.045H1174.33L1173.1 380.067L1171.88 382.045H1170.83L1172.62 379.374L1170.89 376.761H1171.93L1173.09 378.69ZM1177.5 375.482V376.761H1178.49V377.46H1177.5V380.736C1177.5 380.948 1177.55 381.107 1177.64 381.215C1177.72 381.319 1177.87 381.371 1178.09 381.371C1178.19 381.371 1178.33 381.351 1178.51 381.312V382.045C1178.28 382.11 1178.05 382.142 1177.82 382.142C1177.42 382.142 1177.11 382.02 1176.91 381.776C1176.7 381.532 1176.6 381.185 1176.6 380.736V377.46H1175.64V376.761H1176.6V375.482H1177.5Z" fill="#A3A3A3"/>
<path d="M16.2946 367.08C16.2946 368.138 16.1139 368.924 15.7526 369.438C15.3913 369.952 14.8265 370.209 14.0583 370.209C13.2998 370.209 12.7383 369.959 12.3737 369.458C12.0091 368.953 11.8203 368.201 11.8073 367.202V365.996C11.8073 364.951 11.988 364.174 12.3493 363.667C12.7106 363.159 13.277 362.905 14.0485 362.905C14.8135 362.905 15.3766 363.151 15.738 363.642C16.0993 364.13 16.2848 364.886 16.2946 365.908V367.08ZM15.3913 365.844C15.3913 365.079 15.2838 364.523 15.069 364.174C14.8542 363.823 14.514 363.647 14.0485 363.647C13.5863 363.647 13.2493 363.821 13.0378 364.169C12.8262 364.518 12.7171 365.053 12.7106 365.776V367.221C12.7106 367.989 12.8213 368.557 13.0426 368.925C13.2672 369.29 13.6058 369.472 14.0583 369.472C14.5042 369.472 14.8346 369.3 15.0495 368.955C15.2676 368.61 15.3815 368.066 15.3913 367.324V365.844Z" fill="#A3A3A3"/>
<path d="M6.63639 329.953L6.99772 326.408H10.6403V327.243H7.76432L7.54947 329.182C7.89778 328.977 8.29329 328.874 8.736 328.874C9.38378 328.874 9.89811 329.089 10.279 329.519C10.6598 329.945 10.8503 330.523 10.8503 331.252C10.8503 331.984 10.6517 332.562 10.2546 332.985C9.86067 333.405 9.30891 333.615 8.59928 333.615C7.97102 333.615 7.45833 333.441 7.06119 333.093C6.66406 332.745 6.43782 332.263 6.38248 331.648H7.23697C7.29231 332.054 7.43717 332.362 7.67155 332.57C7.90592 332.776 8.21516 332.878 8.59928 332.878C9.0192 332.878 9.34798 332.735 9.58561 332.448C9.82649 332.162 9.94694 331.766 9.94694 331.262C9.94694 330.787 9.81673 330.406 9.55631 330.119C9.29915 329.83 8.95572 329.685 8.52604 329.685C8.13216 329.685 7.82291 329.771 7.5983 329.943L7.35905 330.139L6.63639 329.953ZM16.2946 330.485C16.2946 331.543 16.1139 332.33 15.7526 332.844C15.3913 333.358 14.8265 333.615 14.0583 333.615C13.2998 333.615 12.7383 333.365 12.3737 332.863C12.0091 332.359 11.8203 331.607 11.8073 330.608V329.401C11.8073 328.357 11.988 327.58 12.3493 327.072C12.7106 326.565 13.277 326.311 14.0485 326.311C14.8135 326.311 15.3766 326.556 15.738 327.048C16.0993 327.536 16.2848 328.291 16.2946 329.314V330.485ZM15.3913 329.25C15.3913 328.485 15.2838 327.929 15.069 327.58C14.8542 327.229 14.514 327.053 14.0485 327.053C13.5863 327.053 13.2493 327.227 13.0378 327.575C12.8262 327.924 12.7171 328.459 12.7106 329.182V330.627C12.7106 331.395 12.8213 331.963 13.0426 332.331C13.2672 332.696 13.6058 332.878 14.0583 332.878C14.5042 332.878 14.8346 332.706 15.0495 332.36C15.2676 332.015 15.3815 331.472 15.3913 330.73V329.25Z" fill="#A3A3A3"/>
<path d="M3.57487 297.719H2.66666V291.699L0.845373 292.368V291.547L3.43326 290.576H3.57487V297.719ZM10.6794 294.687C10.6794 295.745 10.4987 296.531 10.1374 297.045C9.77604 297.56 9.21126 297.817 8.44303 297.817C7.68457 297.817 7.12304 297.566 6.75846 297.065C6.39388 296.56 6.20507 295.808 6.19205 294.809V293.603C6.19205 292.558 6.37272 291.782 6.73405 291.274C7.09537 290.766 7.66178 290.512 8.43326 290.512C9.19824 290.512 9.76139 290.758 10.1227 291.249C10.484 291.738 10.6696 292.493 10.6794 293.515V294.687ZM9.77604 293.452C9.77604 292.687 9.66862 292.13 9.45377 291.782C9.23893 291.43 8.89876 291.254 8.43326 291.254C7.97102 291.254 7.63411 291.428 7.42252 291.777C7.21093 292.125 7.10188 292.661 7.09537 293.383V294.828C7.09537 295.597 7.20605 296.165 7.4274 296.533C7.65201 296.897 7.99056 297.079 8.44303 297.079C8.88899 297.079 9.2194 296.907 9.43424 296.562C9.65234 296.217 9.76627 295.673 9.77604 294.931V293.452ZM16.2946 294.687C16.2946 295.745 16.1139 296.531 15.7526 297.045C15.3913 297.56 14.8265 297.817 14.0583 297.817C13.2998 297.817 12.7383 297.566 12.3737 297.065C12.0091 296.56 11.8203 295.808 11.8073 294.809V293.603C11.8073 292.558 11.988 291.782 12.3493 291.274C12.7106 290.766 13.277 290.512 14.0485 290.512C14.8135 290.512 15.3766 290.758 15.738 291.249C16.0993 291.738 16.2848 292.493 16.2946 293.515V294.687ZM15.3913 293.452C15.3913 292.687 15.2838 292.13 15.069 291.782C14.8542 291.43 14.514 291.254 14.0485 291.254C13.5863 291.254 13.2493 291.428 13.0378 291.777C12.8262 292.125 12.7171 292.661 12.7106 293.383V294.828C12.7106 295.597 12.8213 296.165 13.0426 296.533C13.2672 296.897 13.6058 297.079 14.0583 297.079C14.5042 297.079 14.8346 296.907 15.0495 296.562C15.2676 296.217 15.3815 295.673 15.3913 294.931V293.452Z" fill="#A3A3A3"/>
<path d="M3.57487 261.125H2.66666V255.104L0.845373 255.773V254.953L3.43326 253.981H3.57487V261.125ZM6.63639 257.56L6.99772 254.016H10.6403V254.851H7.76432L7.54947 256.789C7.89778 256.584 8.29329 256.481 8.736 256.481C9.38378 256.481 9.89811 256.696 10.279 257.126C10.6598 257.552 10.8503 258.13 10.8503 258.859C10.8503 259.592 10.6517 260.17 10.2546 260.593C9.86067 261.013 9.30891 261.223 8.59928 261.223C7.97102 261.223 7.45833 261.048 7.06119 260.7C6.66406 260.352 6.43782 259.87 6.38248 259.255H7.23697C7.29231 259.662 7.43717 259.969 7.67155 260.178C7.90592 260.383 8.21516 260.485 8.59928 260.485C9.0192 260.485 9.34798 260.342 9.58561 260.056C9.82649 259.769 9.94694 259.374 9.94694 258.869C9.94694 258.394 9.81673 258.013 9.55631 257.727C9.29915 257.437 8.95572 257.292 8.52604 257.292C8.13216 257.292 7.82291 257.378 7.5983 257.551L7.35905 257.746L6.63639 257.56ZM16.2946 258.093C16.2946 259.151 16.1139 259.937 15.7526 260.451C15.3913 260.965 14.8265 261.223 14.0583 261.223C13.2998 261.223 12.7383 260.972 12.3737 260.471C12.0091 259.966 11.8203 259.214 11.8073 258.215V257.009C11.8073 255.964 11.988 255.187 12.3493 254.68C12.7106 254.172 13.277 253.918 14.0485 253.918C14.8135 253.918 15.3766 254.164 15.738 254.655C16.0993 255.143 16.2848 255.899 16.2946 256.921V258.093ZM15.3913 256.857C15.3913 256.092 15.2838 255.536 15.069 255.187C14.8542 254.836 14.514 254.66 14.0485 254.66C13.5863 254.66 13.2493 254.834 13.0378 255.183C12.8262 255.531 12.7171 256.066 12.7106 256.789V258.234C12.7106 259.003 12.8213 259.571 13.0426 259.938C13.2672 260.303 13.6058 260.485 14.0583 260.485C14.5042 260.485 14.8346 260.313 15.0495 259.968C15.2676 259.623 15.3815 259.079 15.3913 258.337V256.857Z" fill="#A3A3A3"/>
<path d="M5.26432 225.326H0.606115V224.677L3.06705 221.943C3.43164 221.529 3.68229 221.194 3.81901 220.937C3.95898 220.676 4.02897 220.408 4.02897 220.131C4.02897 219.76 3.91666 219.456 3.69205 219.218C3.46744 218.98 3.16796 218.861 2.79362 218.861C2.3444 218.861 1.99446 218.99 1.74381 219.247C1.49641 219.501 1.37272 219.856 1.37272 220.312H0.469397C0.469397 219.657 0.679358 219.128 1.09928 218.725C1.52246 218.321 2.08724 218.119 2.79362 218.119C3.45442 218.119 3.97688 218.293 4.361 218.642C4.74511 218.987 4.93717 219.447 4.93717 220.024C4.93717 220.723 4.49121 221.557 3.59928 222.524L1.69498 224.589H5.26432V225.326ZM10.6794 222.294C10.6794 223.352 10.4987 224.138 10.1374 224.652C9.77604 225.167 9.21126 225.424 8.44303 225.424C7.68457 225.424 7.12304 225.173 6.75846 224.672C6.39388 224.167 6.20507 223.416 6.19205 222.416V221.21C6.19205 220.165 6.37272 219.389 6.73405 218.881C7.09537 218.373 7.66178 218.119 8.43326 218.119C9.19824 218.119 9.76139 218.365 10.1227 218.857C10.484 219.345 10.6696 220.1 10.6794 221.122V222.294ZM9.77604 221.059C9.77604 220.294 9.66862 219.737 9.45377 219.389C9.23893 219.037 8.89876 218.861 8.43326 218.861C7.97102 218.861 7.63411 219.036 7.42252 219.384C7.21093 219.732 7.10188 220.268 7.09537 220.99V222.436C7.09537 223.204 7.20605 223.772 7.4274 224.14C7.65201 224.504 7.99056 224.687 8.44303 224.687C8.88899 224.687 9.2194 224.514 9.43424 224.169C9.65234 223.824 9.76627 223.28 9.77604 222.538V221.059ZM16.2946 222.294C16.2946 223.352 16.1139 224.138 15.7526 224.652C15.3913 225.167 14.8265 225.424 14.0583 225.424C13.2998 225.424 12.7383 225.173 12.3737 224.672C12.0091 224.167 11.8203 223.416 11.8073 222.416V221.21C11.8073 220.165 11.988 219.389 12.3493 218.881C12.7106 218.373 13.277 218.119 14.0485 218.119C14.8135 218.119 15.3766 218.365 15.738 218.857C16.0993 219.345 16.2848 220.1 16.2946 221.122V222.294ZM15.3913 221.059C15.3913 220.294 15.2838 219.737 15.069 219.389C14.8542 219.037 14.514 218.861 14.0485 218.861C13.5863 218.861 13.2493 219.036 13.0378 219.384C12.8262 219.732 12.7171 220.268 12.7106 220.99V222.436C12.7106 223.204 12.8213 223.772 13.0426 224.14C13.2672 224.504 13.6058 224.687 14.0583 224.687C14.5042 224.687 14.8346 224.514 15.0495 224.169C15.2676 223.824 15.3815 223.28 15.3913 222.538V221.059Z" fill="#A3A3A3"/>
<path d="M5.26432 188.732H0.606115V188.083L3.06705 185.348C3.43164 184.935 3.68229 184.6 3.81901 184.343C3.95898 184.082 4.02897 183.814 4.02897 183.537C4.02897 183.166 3.91666 182.861 3.69205 182.624C3.46744 182.386 3.16796 182.267 2.79362 182.267C2.3444 182.267 1.99446 182.396 1.74381 182.653C1.49641 182.907 1.37272 183.262 1.37272 183.718H0.469397C0.469397 183.063 0.679358 182.534 1.09928 182.131C1.52246 181.727 2.08724 181.525 2.79362 181.525C3.45442 181.525 3.97688 181.699 4.361 182.048C4.74511 182.393 4.93717 182.853 4.93717 183.429C4.93717 184.129 4.49121 184.963 3.59928 185.929L1.69498 187.995H5.26432V188.732ZM6.63639 185.168L6.99772 181.623H10.6403V182.458H7.76432L7.54947 184.396C7.89778 184.191 8.29329 184.089 8.736 184.089C9.38378 184.089 9.89811 184.303 10.279 184.733C10.6598 185.16 10.8503 185.737 10.8503 186.467C10.8503 187.199 10.6517 187.777 10.2546 188.2C9.86067 188.62 9.30891 188.83 8.59928 188.83C7.97102 188.83 7.45833 188.656 7.06119 188.307C6.66406 187.959 6.43782 187.477 6.38248 186.862H7.23697C7.29231 187.269 7.43717 187.577 7.67155 187.785C7.90592 187.99 8.21516 188.093 8.59928 188.093C9.0192 188.093 9.34798 187.949 9.58561 187.663C9.82649 187.376 9.94694 186.981 9.94694 186.476C9.94694 186.001 9.81673 185.62 9.55631 185.334C9.29915 185.044 8.95572 184.899 8.52604 184.899C8.13216 184.899 7.82291 184.985 7.5983 185.158L7.35905 185.353L6.63639 185.168ZM16.2946 185.7C16.2946 186.758 16.1139 187.544 15.7526 188.058C15.3913 188.573 14.8265 188.83 14.0583 188.83C13.2998 188.83 12.7383 188.579 12.3737 188.078C12.0091 187.573 11.8203 186.821 11.8073 185.822V184.616C11.8073 183.571 11.988 182.795 12.3493 182.287C12.7106 181.779 13.277 181.525 14.0485 181.525C14.8135 181.525 15.3766 181.771 15.738 182.262C16.0993 182.751 16.2848 183.506 16.2946 184.528V185.7ZM15.3913 184.465C15.3913 183.7 15.2838 183.143 15.069 182.795C14.8542 182.443 14.514 182.267 14.0485 182.267C13.5863 182.267 13.2493 182.441 13.0378 182.79C12.8262 183.138 12.7171 183.674 12.7106 184.396V185.842C12.7106 186.61 12.8213 187.178 13.0426 187.546C13.2672 187.91 13.6058 188.093 14.0583 188.093C14.5042 188.093 14.8346 187.92 15.0495 187.575C15.2676 187.23 15.3815 186.686 15.3913 185.944V184.465Z" fill="#A3A3A3"/>
<path d="M1.91959 148.939H2.5983C3.02474 148.933 3.36002 148.821 3.60416 148.603C3.8483 148.384 3.97037 148.09 3.97037 147.719C3.97037 146.885 3.55533 146.469 2.72526 146.469C2.33463 146.469 2.02213 146.581 1.78776 146.806C1.55664 147.027 1.44108 147.322 1.44108 147.689H0.537756C0.537756 147.126 0.742834 146.659 1.15299 146.288C1.5664 145.914 2.09049 145.727 2.72526 145.727C3.39583 145.727 3.92155 145.904 4.3024 146.259C4.68326 146.614 4.87369 147.107 4.87369 147.738C4.87369 148.047 4.77278 148.347 4.57096 148.637C4.37239 148.926 4.10058 149.143 3.75553 149.286C4.14615 149.41 4.44726 149.615 4.65885 149.901C4.87369 150.188 4.98112 150.538 4.98112 150.951C4.98112 151.589 4.77278 152.095 4.35612 152.47C3.93945 152.844 3.39746 153.031 2.73014 153.031C2.06282 153.031 1.5192 152.851 1.09928 152.489C0.682613 152.128 0.474279 151.651 0.474279 151.059H1.38248C1.38248 151.433 1.50455 151.732 1.74869 151.957C1.99283 152.182 2.31998 152.294 2.73014 152.294C3.16634 152.294 3.5 152.18 3.73112 151.952C3.96224 151.724 4.0778 151.397 4.0778 150.971C4.0778 150.557 3.95084 150.24 3.69694 150.019C3.44303 149.797 3.07682 149.683 2.5983 149.677H1.91959V148.939ZM10.6794 149.901C10.6794 150.959 10.4987 151.745 10.1374 152.26C9.77604 152.774 9.21126 153.031 8.44303 153.031C7.68457 153.031 7.12304 152.781 6.75846 152.279C6.39388 151.775 6.20507 151.023 6.19205 150.023V148.817C6.19205 147.772 6.37272 146.996 6.73405 146.488C7.09537 145.98 7.66178 145.727 8.43326 145.727C9.19824 145.727 9.76139 145.972 10.1227 146.464C10.484 146.952 10.6696 147.707 10.6794 148.729V149.901ZM9.77604 148.666C9.77604 147.901 9.66862 147.344 9.45377 146.996C9.23893 146.645 8.89876 146.469 8.43326 146.469C7.97102 146.469 7.63411 146.643 7.42252 146.991C7.21093 147.339 7.10188 147.875 7.09537 148.598V150.043C7.09537 150.811 7.20605 151.379 7.4274 151.747C7.65201 152.112 7.99056 152.294 8.44303 152.294C8.88899 152.294 9.2194 152.121 9.43424 151.776C9.65234 151.431 9.76627 150.888 9.77604 150.145V148.666ZM16.2946 149.901C16.2946 150.959 16.1139 151.745 15.7526 152.26C15.3913 152.774 14.8265 153.031 14.0583 153.031C13.2998 153.031 12.7383 152.781 12.3737 152.279C12.0091 151.775 11.8203 151.023 11.8073 150.023V148.817C11.8073 147.772 11.988 146.996 12.3493 146.488C12.7106 145.98 13.277 145.727 14.0485 145.727C14.8135 145.727 15.3766 145.972 15.738 146.464C16.0993 146.952 16.2848 147.707 16.2946 148.729V149.901ZM15.3913 148.666C15.3913 147.901 15.2838 147.344 15.069 146.996C14.8542 146.645 14.514 146.469 14.0485 146.469C13.5863 146.469 13.2493 146.643 13.0378 146.991C12.8262 147.339 12.7171 147.875 12.7106 148.598V150.043C12.7106 150.811 12.8213 151.379 13.0426 151.747C13.2672 152.112 13.6058 152.294 14.0583 152.294C14.5042 152.294 14.8346 152.121 15.0495 151.776C15.2676 151.431 15.3815 150.888 15.3913 150.145V148.666Z" fill="#A3A3A3"/>
<path d="M1.91959 112.345H2.5983C3.02474 112.339 3.36002 112.226 3.60416 112.008C3.8483 111.79 3.97037 111.496 3.97037 111.125C3.97037 110.291 3.55533 109.875 2.72526 109.875C2.33463 109.875 2.02213 109.987 1.78776 110.211C1.55664 110.433 1.44108 110.727 1.44108 111.095H0.537756C0.537756 110.532 0.742834 110.065 1.15299 109.694C1.5664 109.32 2.09049 109.132 2.72526 109.132C3.39583 109.132 3.92155 109.31 4.3024 109.665C4.68326 110.019 4.87369 110.513 4.87369 111.144C4.87369 111.453 4.77278 111.753 4.57096 112.043C4.37239 112.332 4.10058 112.549 3.75553 112.692C4.14615 112.816 4.44726 113.021 4.65885 113.307C4.87369 113.594 4.98112 113.944 4.98112 114.357C4.98112 114.995 4.77278 115.501 4.35612 115.876C3.93945 116.25 3.39746 116.437 2.73014 116.437C2.06282 116.437 1.5192 116.256 1.09928 115.895C0.682613 115.534 0.474279 115.057 0.474279 114.464H1.38248C1.38248 114.839 1.50455 115.138 1.74869 115.363C1.99283 115.587 2.31998 115.7 2.73014 115.7C3.16634 115.7 3.5 115.586 3.73112 115.358C3.96224 115.13 4.0778 114.803 4.0778 114.377C4.0778 113.963 3.95084 113.646 3.69694 113.424C3.44303 113.203 3.07682 113.089 2.5983 113.083H1.91959V112.345ZM6.63639 112.775L6.99772 109.23H10.6403V110.065H7.76432L7.54947 112.003C7.89778 111.798 8.29329 111.696 8.736 111.696C9.38378 111.696 9.89811 111.911 10.279 112.34C10.6598 112.767 10.8503 113.345 10.8503 114.074C10.8503 114.806 10.6517 115.384 10.2546 115.807C9.86067 116.227 9.30891 116.437 8.59928 116.437C7.97102 116.437 7.45833 116.263 7.06119 115.915C6.66406 115.566 6.43782 115.085 6.38248 114.469H7.23697C7.29231 114.876 7.43717 115.184 7.67155 115.392C7.90592 115.597 8.21516 115.7 8.59928 115.7C9.0192 115.7 9.34798 115.557 9.58561 115.27C9.82649 114.984 9.94694 114.588 9.94694 114.084C9.94694 113.608 9.81673 113.227 9.55631 112.941C9.29915 112.651 8.95572 112.506 8.52604 112.506C8.13216 112.506 7.82291 112.593 7.5983 112.765L7.35905 112.961L6.63639 112.775ZM16.2946 113.307C16.2946 114.365 16.1139 115.151 15.7526 115.666C15.3913 116.18 14.8265 116.437 14.0583 116.437C13.2998 116.437 12.7383 116.186 12.3737 115.685C12.0091 115.181 11.8203 114.429 11.8073 113.429V112.223C11.8073 111.178 11.988 110.402 12.3493 109.894C12.7106 109.386 13.277 109.132 14.0485 109.132C14.8135 109.132 15.3766 109.378 15.738 109.87C16.0993 110.358 16.2848 111.113 16.2946 112.135V113.307ZM15.3913 112.072C15.3913 111.307 15.2838 110.75 15.069 110.402C14.8542 110.05 14.514 109.875 14.0485 109.875C13.5863 109.875 13.2493 110.049 13.0378 110.397C12.8262 110.745 12.7171 111.281 12.7106 112.003V113.449C12.7106 114.217 12.8213 114.785 13.0426 115.153C13.2672 115.517 13.6058 115.7 14.0583 115.7C14.5042 115.7 14.8346 115.527 15.0495 115.182C15.2676 114.837 15.3815 114.294 15.3913 113.551V112.072Z" fill="#A3A3A3"/>
<path d="M4.41959 78.1531H5.40592V78.8904H4.41959V80.5408H3.51139V78.8904H0.274084V78.3582L3.45768 73.4314H4.41959V78.1531ZM1.29947 78.1531H3.51139V74.6667L3.40397 74.8621L1.29947 78.1531ZM10.6794 77.5085C10.6794 78.5665 10.4987 79.3526 10.1374 79.8669C9.77604 80.3813 9.21126 80.6384 8.44303 80.6384C7.68457 80.6384 7.12304 80.3878 6.75846 79.8865C6.39388 79.3819 6.20507 78.63 6.19205 77.6306V76.4246C6.19205 75.3796 6.37272 74.6033 6.73405 74.0955C7.09537 73.5876 7.66178 73.3337 8.43326 73.3337C9.19824 73.3337 9.76139 73.5795 10.1227 74.071C10.484 74.5593 10.6696 75.3145 10.6794 76.3367V77.5085ZM9.77604 76.2732C9.77604 75.5082 9.66862 74.9516 9.45377 74.6033C9.23893 74.2517 8.89876 74.0759 8.43326 74.0759C7.97102 74.0759 7.63411 74.2501 7.42252 74.5984C7.21093 74.9467 7.10188 75.4822 7.09537 76.2048V77.6501C7.09537 78.4184 7.20605 78.9864 7.4274 79.3542C7.65201 79.7188 7.99056 79.9011 8.44303 79.9011C8.88899 79.9011 9.2194 79.7286 9.43424 79.3835C9.65234 79.0385 9.76627 78.4949 9.77604 77.7527V76.2732ZM16.2946 77.5085C16.2946 78.5665 16.1139 79.3526 15.7526 79.8669C15.3913 80.3813 14.8265 80.6384 14.0583 80.6384C13.2998 80.6384 12.7383 80.3878 12.3737 79.8865C12.0091 79.3819 11.8203 78.63 11.8073 77.6306V76.4246C11.8073 75.3796 11.988 74.6033 12.3493 74.0955C12.7106 73.5876 13.277 73.3337 14.0485 73.3337C14.8135 73.3337 15.3766 73.5795 15.738 74.071C16.0993 74.5593 16.2848 75.3145 16.2946 76.3367V77.5085ZM15.3913 76.2732C15.3913 75.5082 15.2838 74.9516 15.069 74.6033C14.8542 74.2517 14.514 74.0759 14.0485 74.0759C13.5863 74.0759 13.2493 74.2501 13.0378 74.5984C12.8262 74.9467 12.7171 75.4822 12.7106 76.2048V77.6501C12.7106 78.4184 12.8213 78.9864 13.0426 79.3542C13.2672 79.7188 13.6058 79.9011 14.0583 79.9011C14.5042 79.9011 14.8346 79.7286 15.0495 79.3835C15.2676 79.0385 15.3815 78.4949 15.3913 77.7527V76.2732Z" fill="#A3A3A3"/>
<path d="M4.41959 41.5589H5.40592V42.2962H4.41959V43.9466H3.51139V42.2962H0.274084V41.764L3.45768 36.8372H4.41959V41.5589ZM1.29947 41.5589H3.51139V38.0726L3.40397 38.2679L1.29947 41.5589ZM6.63639 40.3822L6.99772 36.8372H10.6403V37.6722H7.76432L7.54947 39.6107C7.89778 39.4056 8.29329 39.3031 8.736 39.3031C9.38378 39.3031 9.89811 39.5179 10.279 39.9476C10.6598 40.374 10.8503 40.9518 10.8503 41.681C10.8503 42.4134 10.6517 42.9912 10.2546 43.4144C9.86067 43.8343 9.30891 44.0443 8.59928 44.0443C7.97102 44.0443 7.45833 43.8701 7.06119 43.5218C6.66406 43.1735 6.43782 42.6917 6.38248 42.0765H7.23697C7.29231 42.4834 7.43717 42.791 7.67155 42.9994C7.90592 43.2044 8.21516 43.307 8.59928 43.307C9.0192 43.307 9.34798 43.1637 9.58561 42.8773C9.82649 42.5908 9.94694 42.1953 9.94694 41.6908C9.94694 41.2155 9.81673 40.8346 9.55631 40.5482C9.29915 40.2585 8.95572 40.1136 8.52604 40.1136C8.13216 40.1136 7.82291 40.1999 7.5983 40.3724L7.35905 40.5677L6.63639 40.3822ZM16.2946 40.9144C16.2946 41.9723 16.1139 42.7585 15.7526 43.2728C15.3913 43.7871 14.8265 44.0443 14.0583 44.0443C13.2998 44.0443 12.7383 43.7936 12.3737 43.2923C12.0091 42.7878 11.8203 42.0358 11.8073 41.0365V39.8304C11.8073 38.7855 11.988 38.0091 12.3493 37.5013C12.7106 36.9935 13.277 36.7396 14.0485 36.7396C14.8135 36.7396 15.3766 36.9854 15.738 37.4769C16.0993 37.9652 16.2848 38.7204 16.2946 39.7425V40.9144ZM15.3913 39.679C15.3913 38.9141 15.2838 38.3574 15.069 38.0091C14.8542 37.6576 14.514 37.4818 14.0485 37.4818C13.5863 37.4818 13.2493 37.6559 13.0378 38.0042C12.8262 38.3525 12.7171 38.888 12.7106 39.6107V41.056C12.7106 41.8242 12.8213 42.3923 13.0426 42.7601C13.2672 43.1247 13.6058 43.307 14.0583 43.307C14.5042 43.307 14.8346 43.1345 15.0495 42.7894C15.2676 42.4443 15.3815 41.9007 15.3913 41.1585V39.679Z" fill="#A3A3A3"/>
<path d="M1.02115 4.58354L1.38248 1.03862H5.02506V1.87358H2.14908L1.93424 3.81206C2.28255 3.60698 2.67806 3.50444 3.12076 3.50444C3.76855 3.50444 4.28287 3.71928 4.66373 4.14897C5.04459 4.5754 5.23502 5.1532 5.23502 5.88237C5.23502 6.61479 5.03645 7.19259 4.63932 7.61577C4.24544 8.03569 3.69368 8.24565 2.98405 8.24565C2.35579 8.24565 1.84309 8.0715 1.44596 7.72319C1.04882 7.37488 0.822587 6.89311 0.767248 6.27788H1.62174C1.67708 6.68478 1.82194 6.9924 2.05631 7.20073C2.29069 7.40581 2.59993 7.50835 2.98405 7.50835C3.40397 7.50835 3.73274 7.36512 3.97037 7.07866C4.21126 6.7922 4.3317 6.39669 4.3317 5.89214C4.3317 5.41688 4.20149 5.03602 3.94108 4.74956C3.68391 4.45984 3.34049 4.31499 2.9108 4.31499C2.51692 4.31499 2.20768 4.40125 1.98307 4.57378L1.74381 4.76909L1.02115 4.58354ZM10.6794 5.11577C10.6794 6.17371 10.4987 6.95984 10.1374 7.47417C9.77604 7.98849 9.21126 8.24565 8.44303 8.24565C7.68457 8.24565 7.12304 7.995 6.75846 7.4937C6.39388 6.98914 6.20507 6.23719 6.19205 5.23784V4.03178C6.19205 2.98686 6.37272 2.21049 6.73405 1.70268C7.09537 1.19487 7.66178 0.940964 8.43326 0.940964C9.19824 0.940964 9.76139 1.18673 10.1227 1.67827C10.484 2.16655 10.6696 2.92176 10.6794 3.94389V5.11577ZM9.77604 3.88042C9.77604 3.11544 9.66862 2.5588 9.45377 2.21049C9.23893 1.85893 8.89876 1.68315 8.43326 1.68315C7.97102 1.68315 7.63411 1.8573 7.42252 2.20561C7.21093 2.55392 7.10188 3.0894 7.09537 3.81206V5.25737C7.09537 6.0256 7.20605 6.59363 7.4274 6.96147C7.65201 7.32605 7.99056 7.50835 8.44303 7.50835C8.88899 7.50835 9.2194 7.33582 9.43424 6.99077C9.65234 6.64572 9.76627 6.1021 9.77604 5.35991V3.88042ZM16.2946 5.11577C16.2946 6.17371 16.1139 6.95984 15.7526 7.47417C15.3913 7.98849 14.8265 8.24565 14.0583 8.24565C13.2998 8.24565 12.7383 7.995 12.3737 7.4937C12.0091 6.98914 11.8203 6.23719 11.8073 5.23784V4.03178C11.8073 2.98686 11.988 2.21049 12.3493 1.70268C12.7106 1.19487 13.277 0.940964 14.0485 0.940964C14.8135 0.940964 15.3766 1.18673 15.738 1.67827C16.0993 2.16655 16.2848 2.92176 16.2946 3.94389V5.11577ZM15.3913 3.88042C15.3913 3.11544 15.2838 2.5588 15.069 2.21049C14.8542 1.85893 14.514 1.68315 14.0485 1.68315C13.5863 1.68315 13.2493 1.8573 13.0378 2.20561C12.8262 2.55392 12.7171 3.0894 12.7106 3.81206V5.25737C12.7106 6.0256 12.8213 6.59363 13.0426 6.96147C13.2672 7.32605 13.6058 7.50835 14.0583 7.50835C14.5042 7.50835 14.8346 7.33582 15.0495 6.99077C15.2676 6.64572 15.3815 6.1021 15.3913 5.35991V3.88042Z" fill="#A3A3A3"/>
<path d="M26.7793 4.12563V366.089" stroke="#F0F0F0"/>
<path d="M86.2891 4.12563V366.089" stroke="#F0F0F0"/>
<path d="M146.789 4.12563V366.089" stroke="#F0F0F0"/>
<path d="M206.299 4.12563V366.089" stroke="#F0F0F0"/>
<path d="M266.801 4.12563V366.089" stroke="#F0F0F0"/>
<path d="M327.301 4.12563V366.089" stroke="#F0F0F0"/>
<path d="M386.811 4.12563V366.089" stroke="#F0F0F0"/>
<path d="M447.312 4.12563V366.089" stroke="#F0F0F0"/>
<path d="M507.814 4.12563V366.089" stroke="#F0F0F0"/>
<path d="M567.322 4.12563V366.089" stroke="#F0F0F0"/>
<path d="M627.824 4.12563V366.089" stroke="#F0F0F0"/>
<path d="M688.326 4.12563V366.089" stroke="#F0F0F0"/>
<path d="M747.834 4.12563V366.089" stroke="#F0F0F0"/>
<path d="M808.336 4.12563V366.089" stroke="#F0F0F0"/>
<path d="M868.838 4.12563V366.089" stroke="#F0F0F0"/>
<path d="M928.348 4.12563V366.089" stroke="#F0F0F0"/>
<path d="M988.848 4.12563V366.089" stroke="#F0F0F0"/>
<path d="M1049.35 4.12563V366.089" stroke="#F0F0F0"/>
<path d="M1108.86 4.12563V366.089" stroke="#F0F0F0"/>
<path d="M1169.36 4.12563V366.089" stroke="#F0F0F0"/>
<path d="M1209.03 4.12563V366.089" stroke="#F0F0F0"/>
<path d="M26.7793 366.09H1209.03" stroke="#F0F0F0"/>
<path d="M26.7793 329.495H1209.03" stroke="#F0F0F0"/>
<path d="M26.7793 293.697H1209.03" stroke="#F0F0F0"/>
<path d="M26.7793 257.103H1209.03" stroke="#F0F0F0"/>
<path d="M26.7793 221.304H1209.03" stroke="#F0F0F0"/>
<path d="M26.7793 184.71H1209.03" stroke="#F0F0F0"/>
<path d="M26.7793 148.911H1209.03" stroke="#F0F0F0"/>
<path d="M26.7793 112.317H1209.03" stroke="#F0F0F0"/>
<path d="M26.7793 76.5184H1209.03" stroke="#F0F0F0"/>
<path d="M26.7793 39.9243H1209.03" stroke="#F0F0F0"/>
<path d="M26.7793 4.12563H1209.03" stroke="#F0F0F0"/>
<path d="M26.7793 109.93C26.7793 109.93 36.6975 20.0361 46.6158 20.0361C56.534 20.0361 56.534 335.064 66.4522 335.064C76.3705 335.064 76.3705 310.403 86.2887 310.403C96.2069 310.403 96.2069 190.278 106.125 190.278C116.043 190.278 116.043 66.9721 126.953 66.9721C136.872 66.9721 136.872 76.5184 146.79 76.5184C156.708 76.5184 156.708 73.3363 166.626 73.3363C176.545 73.3363 176.545 72.5408 186.463 72.5408C196.381 72.5408 196.381 128.228 206.299 128.228C216.218 128.228 216.218 255.512 227.128 255.512C237.046 255.512 237.046 135.387 246.964 135.387C256.882 135.387 256.882 151.298 266.801 151.298C276.719 151.298 276.719 218.917 286.637 218.917C296.555 218.917 296.555 127.432 306.473 127.432C316.392 127.432 316.392 357.339 327.302 357.339C337.22 357.339 337.22 279.377 347.138 279.377C357.056 279.377 357.056 129.023 366.975 129.023C376.893 129.023 376.893 140.16 386.811 140.16C396.729 140.16 396.729 323.927 406.648 323.927C416.566 323.927 416.566 54.2437 427.476 54.2437C437.394 54.2437 437.394 51.8571 447.312 51.8571C457.231 51.8571 457.231 237.214 467.149 237.214C477.067 237.214 477.067 157.662 486.985 157.662C496.904 157.662 496.904 156.071 506.822 156.071C516.74 156.071 516.74 349.383 527.65 349.383C537.568 349.383 537.568 343.815 547.487 343.815C557.405 343.815 557.405 113.908 567.323 113.908C577.241 113.908 577.241 84.4736 587.159 84.4736C597.078 84.4736 597.078 82.0871 606.996 82.0871C617.906 82.0871 617.906 259.489 627.824 259.489C637.742 259.489 637.742 70.1542 647.661 70.1542C657.579 70.1542 657.579 311.994 667.497 311.994C677.415 311.994 677.415 312.789 687.334 312.789C697.252 312.789 697.252 272.218 707.17 272.218C718.08 272.218 718.08 159.253 727.998 159.253C737.917 159.253 737.917 132.205 747.835 132.205C757.753 132.205 757.753 82.8826 767.671 82.8826C777.59 82.8826 777.59 273.013 787.508 273.013C797.426 273.013 797.426 24.8093 807.344 24.8093C818.254 24.8093 818.254 202.211 828.173 202.211C838.091 202.211 838.091 97.202 848.009 97.202C857.927 97.202 857.927 354.157 867.845 354.157C877.764 354.157 877.764 244.374 887.682 244.374C897.6 244.374 897.6 241.192 907.518 241.192C918.428 241.192 918.428 103.566 928.347 103.566C938.265 103.566 938.265 101.18 948.183 101.18C958.101 101.18 958.101 295.288 968.02 295.288C977.938 295.288 977.938 148.911 987.856 148.911C997.774 148.911 997.774 126.636 1007.69 126.636C1018.6 126.636 1018.6 276.195 1028.52 276.195C1038.44 276.195 1038.44 272.218 1048.36 272.218C1058.28 272.218 1058.28 68.5631 1068.19 68.5631C1078.11 68.5631 1078.11 12.0809 1088.03 12.0809C1097.95 12.0809 1097.95 325.518 1107.87 325.518C1118.78 325.518 1118.78 366.09 1128.7 366.09C1138.61 366.09 1138.61 82.0871 1148.53 82.0871C1158.45 82.0871 1158.45 196.643 1168.37 196.643C1178.29 196.643 1178.29 288.128 1188.2 288.128C1198.12 288.128 1209.03 261.08 1209.03 261.08" stroke="#A6CEE3" stroke-width="2"/>
<ellipse cx="26.7798" cy="109.93" rx="3.96729" ry="3.1821" fill="#A6CEE3"/>
<ellipse cx="46.6157" cy="20.0361" rx="3.96729" ry="3.1821" fill="#A6CEE3"/>
<ellipse cx="66.4517" cy="335.064" rx="3.96729" ry="3.1821" fill="#A6CEE3"/>
<ellipse cx="86.2896" cy="310.403" rx="3.96729" ry="3.1821" fill="#A6CEE3"/>
<ellipse cx="106.125" cy="190.278" rx="3.96729" ry="3.1821" fill="#A6CEE3"/>
<ellipse cx="126.954" cy="66.9721" rx="3.96729" ry="3.1821" fill="#A6CEE3"/>
<ellipse cx="146.79" cy="76.5184" rx="3.96729" ry="3.1821" fill="#A6CEE3"/>
<ellipse cx="166.626" cy="73.3363" rx="3.96729" ry="3.1821" fill="#A6CEE3"/>
<ellipse cx="186.463" cy="72.5408" rx="3.96729" ry="3.1821" fill="#A6CEE3"/>
<ellipse cx="206.299" cy="128.228" rx="3.96729" ry="3.1821" fill="#A6CEE3"/>
<ellipse cx="227.127" cy="255.512" rx="3.96729" ry="3.1821" fill="#A6CEE3"/>
<ellipse cx="246.963" cy="135.387" rx="3.96729" ry="3.1821" fill="#A6CEE3"/>
<ellipse cx="266.801" cy="151.298" rx="3.96729" ry="3.1821" fill="#A6CEE3"/>
<ellipse cx="286.637" cy="218.917" rx="3.96729" ry="3.1821" fill="#A6CEE3"/>
<ellipse cx="306.473" cy="127.432" rx="3.96729" ry="3.1821" fill="#A6CEE3"/>
<ellipse cx="327.301" cy="357.339" rx="3.96729" ry="3.1821" fill="#A6CEE3"/>
<ellipse cx="347.139" cy="279.377" rx="3.96729" ry="3.1821" fill="#A6CEE3"/>
<ellipse cx="366.975" cy="129.023" rx="3.96729" ry="3.1821" fill="#A6CEE3"/>
<ellipse cx="386.811" cy="140.16" rx="3.96729" ry="3.1821" fill="#A6CEE3"/>
<ellipse cx="406.647" cy="323.927" rx="3.96729" ry="3.1821" fill="#A6CEE3"/>
<ellipse cx="427.475" cy="54.2437" rx="3.96729" ry="3.1821" fill="#A6CEE3"/>
<ellipse cx="447.313" cy="51.8571" rx="3.96729" ry="3.1821" fill="#A6CEE3"/>
<ellipse cx="467.149" cy="237.214" rx="3.96729" ry="3.1821" fill="#A6CEE3"/>
<ellipse cx="486.985" cy="157.662" rx="3.96729" ry="3.1821" fill="#A6CEE3"/>
<ellipse cx="506.821" cy="156.071" rx="3.96729" ry="3.1821" fill="#A6CEE3"/>
<ellipse cx="527.651" cy="349.383" rx="3.96729" ry="3.1821" fill="#A6CEE3"/>
<ellipse cx="547.487" cy="343.815" rx="3.96729" ry="3.1821" fill="#A6CEE3"/>
<ellipse cx="567.323" cy="113.908" rx="3.96729" ry="3.1821" fill="#A6CEE3"/>
<ellipse cx="587.159" cy="84.4737" rx="3.96729" ry="3.1821" fill="#A6CEE3"/>
<ellipse cx="606.997" cy="82.0871" rx="3.96729" ry="3.1821" fill="#A6CEE3"/>
<ellipse cx="627.825" cy="259.489" rx="3.96729" ry="3.1821" fill="#A6CEE3"/>
<ellipse cx="647.661" cy="70.1542" rx="3.96729" ry="3.1821" fill="#A6CEE3"/>
<ellipse cx="667.497" cy="311.994" rx="3.96729" ry="3.1821" fill="#A6CEE3"/>
<ellipse cx="687.334" cy="312.789" rx="3.96729" ry="3.1821" fill="#A6CEE3"/>
<ellipse cx="707.17" cy="272.217" rx="3.96729" ry="3.1821" fill="#A6CEE3"/>
<ellipse cx="727.999" cy="159.253" rx="3.96729" ry="3.1821" fill="#A6CEE3"/>
<ellipse cx="747.834" cy="132.205" rx="3.96729" ry="3.1821" fill="#A6CEE3"/>
<ellipse cx="767.67" cy="82.8826" rx="3.96729" ry="3.1821" fill="#A6CEE3"/>
<ellipse cx="787.508" cy="273.013" rx="3.96729" ry="3.1821" fill="#A6CEE3"/>
<ellipse cx="807.344" cy="24.8093" rx="3.96729" ry="3.1821" fill="#A6CEE3"/>
<ellipse cx="828.172" cy="202.211" rx="3.96729" ry="3.1821" fill="#A6CEE3"/>
<ellipse cx="848.008" cy="97.2021" rx="3.96729" ry="3.1821" fill="#A6CEE3"/>
<ellipse cx="867.846" cy="354.157" rx="3.96729" ry="3.1821" fill="#A6CEE3"/>
<ellipse cx="887.682" cy="244.374" rx="3.96729" ry="3.1821" fill="#A6CEE3"/>
<ellipse cx="907.518" cy="241.192" rx="3.96729" ry="3.1821" fill="#A6CEE3"/>
<ellipse cx="928.346" cy="103.566" rx="3.96729" ry="3.1821" fill="#A6CEE3"/>
<ellipse cx="948.184" cy="101.18" rx="3.96729" ry="3.1821" fill="#A6CEE3"/>
<ellipse cx="968.02" cy="295.288" rx="3.96729" ry="3.1821" fill="#A6CEE3"/>
<ellipse cx="987.856" cy="148.911" rx="3.96729" ry="3.1821" fill="#A6CEE3"/>
<ellipse cx="1007.69" cy="126.636" rx="3.96729" ry="3.1821" fill="#A6CEE3"/>
<ellipse cx="1028.52" cy="276.195" rx="3.96729" ry="3.1821" fill="#A6CEE3"/>
<ellipse cx="1048.36" cy="272.217" rx="3.96729" ry="3.1821" fill="#A6CEE3"/>
<ellipse cx="1068.19" cy="68.5632" rx="3.96729" ry="3.1821" fill="#A6CEE3"/>
<ellipse cx="1088.03" cy="12.0809" rx="3.96729" ry="3.1821" fill="#A6CEE3"/>
<ellipse cx="1107.87" cy="325.518" rx="3.96729" ry="3.1821" fill="#A6CEE3"/>
<ellipse cx="1128.7" cy="366.09" rx="3.96729" ry="3.1821" fill="#A6CEE3"/>
<ellipse cx="1148.53" cy="82.0871" rx="3.96729" ry="3.1821" fill="#A6CEE3"/>
<ellipse cx="1168.37" cy="196.643" rx="3.96729" ry="3.1821" fill="#A6CEE3"/>
<ellipse cx="1188.2" cy="288.128" rx="3.96729" ry="3.1821" fill="#A6CEE3"/>
<ellipse cx="1209.03" cy="261.08" rx="3.96729" ry="3.1821" fill="#A6CEE3"/>
</svg>
