<svg width="20" height="16" viewBox="0 0 20 16" fill="none" xmlns="http://www.w3.org/2000/svg">
<path d="M9.79933 8.29923L3.12076 14.6742C2.65915 15.1149 1.91272 15.1149 1.45603 14.6742L0.346205 13.6149C-0.115402 13.1742 -0.115402 12.4617 0.346205 12.0258L5.08013 7.50704L0.346205 2.98828C-0.115402 2.54766 -0.115402 1.83516 0.346205 1.39922L1.45112 0.330469C1.91272 -0.110156 2.65915 -0.110156 3.11585 0.330469L9.79442 6.70548C10.2609 7.1461 10.2609 7.8586 9.79933 8.29923ZM19.2279 6.70548L12.5493 0.330469C12.0877 -0.110156 11.3413 -0.110156 10.8846 0.330469L9.77478 1.38985C9.31317 1.83047 9.31317 2.54297 9.77478 2.97891L14.5087 7.49766L9.77478 12.0164C9.31317 12.457 9.31317 13.1695 9.77478 13.6055L10.8846 14.6649C11.3462 15.1055 12.0926 15.1055 12.5493 14.6649L19.2279 8.28985C19.6895 7.8586 19.6895 7.1461 19.2279 6.70548Z" fill="white"/>
</svg>
