<svg width="22" height="24" viewBox="0 0 22 24" fill="none" xmlns="http://www.w3.org/2000/svg">
<path d="M21.2143 1.49983H15.3214L14.8598 0.623263C14.762 0.435863 14.6114 0.278226 14.4249 0.168087C14.2384 0.0579474 14.0233 -0.000325041 13.804 -0.000174887H8.19107C7.97224 -0.000977881 7.7576 0.0570773 7.57173 0.167339C7.38587 0.277601 7.23631 0.43561 7.14018 0.623263L6.67857 1.49983H0.785714C0.57733 1.49983 0.37748 1.57884 0.23013 1.7195C0.0827804 1.86015 0 2.05091 0 2.24983L0 3.74983C0 3.94874 0.0827804 4.1395 0.23013 4.28016C0.37748 4.42081 0.57733 4.49983 0.785714 4.49983H21.2143C21.4227 4.49983 21.6225 4.42081 21.7699 4.28016C21.9172 4.1395 22 3.94874 22 3.74983V2.24983C22 2.05091 21.9172 1.86015 21.7699 1.7195C21.6225 1.57884 21.4227 1.49983 21.2143 1.49983ZM2.6125 21.8904C2.64997 22.4617 2.9141 22.9978 3.3511 23.3897C3.7881 23.7816 4.36513 23.9998 4.96473 23.9998H17.0353C17.6349 23.9998 18.2119 23.7816 18.6489 23.3897C19.0859 22.9978 19.35 22.4617 19.3875 21.8904L20.4286 5.99982H1.57143L2.6125 21.8904Z" fill="#0CABC7"/>
</svg>
