<svg width="22" height="24" viewBox="0 0 22 24" fill="none" xmlns="http://www.w3.org/2000/svg">
<path d="M15.3771 3.90001L18.8222 8.12814C18.9674 8.30626 18.9674 8.59689 18.8222 8.77501L10.4806 19.0125L6.93611 19.4953C6.4625 19.5609 6.06146 19.0688 6.11493 18.4875L6.50833 14.1375L14.85 3.90001C14.9951 3.72189 15.2319 3.72189 15.3771 3.90001ZM21.5646 2.82657L19.7007 0.539075C19.1201 -0.173425 18.1767 -0.173425 17.5924 0.539075L16.2403 2.19845C16.0951 2.37657 16.0951 2.6672 16.2403 2.84532L19.6854 7.07345C19.8306 7.25157 20.0674 7.25157 20.2125 7.07345L21.5646 5.41407C22.1451 4.69689 22.1451 3.53907 21.5646 2.82657ZM14.6667 16.2281V21H2.44444V6.00001H11.2215C11.3437 6.00001 11.4583 5.93907 11.5462 5.83595L13.074 3.96095C13.3642 3.6047 13.158 3.00001 12.7493 3.00001H1.83333C0.821181 3.00001 0 4.00782 0 5.25001V21.75C0 22.9922 0.821181 24 1.83333 24H15.2778C16.2899 24 17.1111 22.9922 17.1111 21.75V14.3531C17.1111 13.8516 16.6184 13.6031 16.3281 13.9547L14.8003 15.8297C14.7163 15.9375 14.6667 16.0781 14.6667 16.2281Z" fill="#0CABC7"/>
</svg>
